<svg xmlns="http://www.w3.org/2000/svg" viewBox="0 0 1200 800" preserveAspectRatio="xMidYMid slice" role="img" aria-label="Avant"><defs><linearGradient id="sky" x1="0" y1="0" x2="0" y2="1"><stop offset="0" stop-color="#ded7c7"/><stop offset="1" stop-color="#bcb39d"/></linearGradient><radialGradient id="orb"><stop offset="0" stop-color="#e6dcc4" stop-opacity="0.4"/><stop offset="1" stop-color="#e6dcc4" stop-opacity="0"/></radialGradient></defs><rect width="1200" height="800" fill="url(#sky)"/><circle cx="936" cy="208" r="360" fill="url(#orb)"/><circle cx="936" cy="208" r="88" fill="#e6dcc4" opacity="0.4"/><g opacity="0.06" fill="#F7F4EE"><path d="M983.9999999999999 -175.99999999999997 C 1264.0 64.00000000000003, 1264.0 384.0, 983.9999999999999 624.0 C 703.9999999999999 384.0, 703.9999999999999 64.00000000000003, 983.9999999999999 -175.99999999999997 Z"/><rect x="981.9999999999999" y="-175.99999999999997" width="4" height="800.0" rx="2"/></g><path d="M0 496.0 Q 120 520 240 496 Q 360 472 480 496 Q 600 520 720 496 Q 840 472 960 496 Q 1080 520 1200 496 L 1200 9999 L 0 9999 Z" fill="#8d8571" opacity="1.0"/><path d="M0 592.0 Q 120 616 240 592 Q 360 568 480 592 Q 600 616 720 592 Q 840 568 960 592 Q 1080 616 1200 592 L 1200 9999 L 0 9999 Z" fill="#766d59" opacity="1.0"/><path d="M0 688.0 Q 120 712 240 688 Q 360 664 480 688 Q 600 712 720 688 Q 840 664 960 688 Q 1080 712 1200 688 L 1200 9999 L 0 9999 Z" fill="#5d5645" opacity="1.0"/><path d="M1171 733 l-8 -22 M1171 733 l9 -18 M1171 733 l0 -26" stroke="#6e6450" stroke-width="3" fill="none" opacity="0.7"/><path d="M422 661 l-8 -22 M422 661 l9 -18 M422 661 l0 -26" stroke="#6e6450" stroke-width="3" fill="none" opacity="0.7"/><path d="M1047 625 l-8 -22 M1047 625 l9 -18 M1047 625 l0 -26" stroke="#6e6450" stroke-width="3" fill="none" opacity="0.7"/><path d="M109 720 l-8 -22 M109 720 l9 -18 M109 720 l0 -26" stroke="#6e6450" stroke-width="3" fill="none" opacity="0.7"/><path d="M160 735 l-8 -22 M160 735 l9 -18 M160 735 l0 -26" stroke="#6e6450" stroke-width="3" fill="none" opacity="0.7"/><path d="M181 701 l-8 -22 M181 701 l9 -18 M181 701 l0 -26" stroke="#6e6450" stroke-width="3" fill="none" opacity="0.7"/><path d="M455 726 l-8 -22 M455 726 l9 -18 M455 726 l0 -26" stroke="#6e6450" stroke-width="3" fill="none" opacity="0.7"/><path d="M86 534 l-8 -22 M86 534 l9 -18 M86 534 l0 -26" stroke="#6e6450" stroke-width="3" fill="none" opacity="0.7"/><path d="M357 575 l-8 -22 M357 575 l9 -18 M357 575 l0 -26" stroke="#6e6450" stroke-width="3" fill="none" opacity="0.7"/><path d="M977 506 l-8 -22 M977 506 l9 -18 M977 506 l0 -26" stroke="#6e6450" stroke-width="3" fill="none" opacity="0.7"/><ellipse cx="1102" cy="710" rx="22" ry="8" fill="#897e64" opacity="0.6"/><ellipse cx="335" cy="583" rx="19" ry="8" fill="#897e64" opacity="0.6"/><ellipse cx="316" cy="555" rx="23" ry="8" fill="#897e64" opacity="0.6"/><ellipse cx="125" cy="751" rx="23" ry="8" fill="#897e64" opacity="0.6"/><ellipse cx="397" cy="710" rx="18" ry="8" fill="#897e64" opacity="0.6"/><ellipse cx="535" cy="685" rx="14" ry="8" fill="#897e64" opacity="0.6"/><g font-family="Georgia, 'Times New Roman', serif"><text x="56" y="730" font-size="44" fill="#F7F4EE" font-weight="600" letter-spacing="0.5">Avant</text><text x="56" y="764" font-size="22" fill="#F7F4EE" opacity="0.82" font-family="Arial, sans-serif">Vieille terrasse fatiguée</text></g></svg>