<svg xmlns="http://www.w3.org/2000/svg" viewBox="0 0 1000 750" preserveAspectRatio="xMidYMid slice" role="img" aria-label="Réalisation paysagère"><defs><linearGradient id="sky" x1="0" y1="0" x2="0" y2="1"><stop offset="0" stop-color="#2b3c4e"/><stop offset="1" stop-color="#15212d"/></linearGradient><radialGradient id="orb"><stop offset="0" stop-color="#d9b877" stop-opacity="0.85"/><stop offset="1" stop-color="#d9b877" stop-opacity="0"/></radialGradient></defs><rect width="1000" height="750" fill="url(#sky)"/><circle cx="622" cy="335" r="1" fill="#fff" opacity="0.48"/><circle cx="57" cy="46" r="1" fill="#fff" opacity="0.32"/><circle cx="863" cy="188" r="1" fill="#fff" opacity="0.67"/><circle cx="6" cy="201" r="1" fill="#fff" opacity="0.75"/><circle cx="436" cy="90" r="1" fill="#fff" opacity="0.57"/><circle cx="456" cy="311" r="1" fill="#fff" opacity="0.72"/><circle cx="1" cy="305" r="1" fill="#fff" opacity="0.61"/><circle cx="995" cy="30" r="1" fill="#fff" opacity="0.35"/><circle cx="49" cy="297" r="2" fill="#fff" opacity="0.68"/><circle cx="899" cy="46" r="2" fill="#fff" opacity="0.77"/><circle cx="272" cy="320" r="1" fill="#fff" opacity="0.43"/><circle cx="188" cy="343" r="1" fill="#fff" opacity="0.52"/><circle cx="600" cy="54" r="1" fill="#fff" opacity="0.51"/><circle cx="297" cy="195" r="2" fill="#fff" opacity="0.68"/><circle cx="562" cy="187" r="1" fill="#fff" opacity="0.70"/><circle cx="367" cy="120" r="1" fill="#fff" opacity="0.38"/><circle cx="907" cy="199" r="2" fill="#fff" opacity="0.31"/><circle cx="841" cy="250" r="2" fill="#fff" opacity="0.39"/><circle cx="824" cy="167" r="1" fill="#fff" opacity="0.61"/><circle cx="357" cy="118" r="2" fill="#fff" opacity="0.62"/><circle cx="755" cy="250" r="2" fill="#fff" opacity="0.40"/><circle cx="849" cy="213" r="1" fill="#fff" opacity="0.69"/><circle cx="429" cy="239" r="1" fill="#fff" opacity="0.74"/><circle cx="951" cy="144" r="1" fill="#fff" opacity="0.66"/><circle cx="723" cy="91" r="1" fill="#fff" opacity="0.48"/><circle cx="411" cy="373" r="1" fill="#fff" opacity="0.76"/><circle cx="177" cy="28" r="1" fill="#fff" opacity="0.79"/><circle cx="9" cy="254" r="1" fill="#fff" opacity="0.47"/><circle cx="134" cy="115" r="2" fill="#fff" opacity="0.60"/><circle cx="326" cy="181" r="2" fill="#fff" opacity="0.68"/><circle cx="865" cy="66" r="1" fill="#fff" opacity="0.71"/><circle cx="986" cy="366" r="1" fill="#fff" opacity="0.38"/><circle cx="653" cy="177" r="1" fill="#fff" opacity="0.41"/><circle cx="580" cy="29" r="2" fill="#fff" opacity="0.41"/><circle cx="696" cy="153" r="2" fill="#fff" opacity="0.53"/><circle cx="767" cy="235" r="1" fill="#fff" opacity="0.41"/><circle cx="695" cy="265" r="1" fill="#fff" opacity="0.74"/><circle cx="439" cy="278" r="2" fill="#fff" opacity="0.39"/><circle cx="516" cy="209" r="2" fill="#fff" opacity="0.79"/><circle cx="399" cy="109" r="2" fill="#fff" opacity="0.71"/><circle cx="780" cy="195" r="338" fill="url(#orb)"/><circle cx="780" cy="195" r="82" fill="#d9b877" opacity="0.85"/><g opacity="0.06" fill="#F7F4EE"><path d="M820.0 -164.99999999999997 C 1082.5 60.00000000000003, 1082.5 360.0, 820.0 585.0 C 557.5 360.0, 557.5 60.00000000000003, 820.0 -164.99999999999997 Z"/><rect x="818.0" y="-164.99999999999997" width="4" height="750.0" rx="2"/></g><path d="M0 465.0 Q 100 488 200 465 Q 300 442 400 465 Q 500 488 600 465 Q 700 442 800 465 Q 900 488 1000 465 L 1000 9999 L 0 9999 Z" fill="#1d2b22" opacity="1.0"/><path d="M0 555.0 Q 100 578 200 555 Q 300 532 400 555 Q 500 578 600 555 Q 700 532 800 555 Q 900 578 1000 555 L 1000 9999 L 0 9999 Z" fill="#162018" opacity="1.0"/><path d="M0 645.0 Q 100 668 200 645 Q 300 622 400 645 Q 500 668 600 645 Q 700 622 800 645 Q 900 668 1000 645 L 1000 9999 L 0 9999 Z" fill="#0f1812" opacity="1.0"/><rect x="197" y="445" width="6" height="305" fill="#0c1410"/><circle cx="200" cy="439" r="10" fill="#d9b877"/><ellipse cx="200" cy="690" rx="120" ry="38" fill="#d9b877" opacity="0.18"/><rect x="547" y="445" width="6" height="305" fill="#0c1410"/><circle cx="550" cy="439" r="10" fill="#d9b877"/><ellipse cx="550" cy="690" rx="120" ry="38" fill="#d9b877" opacity="0.18"/><rect x="847" y="445" width="6" height="305" fill="#0c1410"/><circle cx="850" cy="439" r="10" fill="#d9b877"/><ellipse cx="850" cy="690" rx="120" ry="38" fill="#d9b877" opacity="0.18"/><rect x="889" y="585" width="22" height="99" rx="9" fill="#3c2f22"/><ellipse cx="900" cy="549" rx="90" ry="104" fill="#16231a"/><ellipse cx="846" cy="594" rx="58" ry="65" fill="#16231a"/><ellipse cx="954" cy="585" rx="61" ry="68" fill="#16231a"/></svg>