<svg xmlns="http://www.w3.org/2000/svg" viewBox="0 0 1000 750" preserveAspectRatio="xMidYMid slice" role="img" aria-label="Massif & plantations"><defs><linearGradient id="sky" x1="0" y1="0" x2="0" y2="1"><stop offset="0" stop-color="#d3e2cd"/><stop offset="1" stop-color="#9fbf97"/></linearGradient><radialGradient id="orb"><stop offset="0" stop-color="#efe6c6" stop-opacity="0.5"/><stop offset="1" stop-color="#efe6c6" stop-opacity="0"/></radialGradient></defs><rect width="1000" height="750" fill="url(#sky)"/><circle cx="780" cy="195" r="338" fill="url(#orb)"/><circle cx="780" cy="195" r="82" fill="#efe6c6" opacity="0.5"/><g opacity="0.06" fill="#F7F4EE"><path d="M820.0 -164.99999999999997 C 1082.5 60.00000000000003, 1082.5 360.0, 820.0 585.0 C 557.5 360.0, 557.5 60.00000000000003, 820.0 -164.99999999999997 Z"/><rect x="818.0" y="-164.99999999999997" width="4" height="750.0" rx="2"/></g><path d="M0 465.0 Q 100 488 200 465 Q 300 442 400 465 Q 500 488 600 465 Q 700 442 800 465 Q 900 488 1000 465 L 1000 9999 L 0 9999 Z" fill="#6a8a5f" opacity="1.0"/><path d="M0 555.0 Q 100 578 200 555 Q 300 532 400 555 Q 500 578 600 555 Q 700 532 800 555 Q 900 578 1000 555 L 1000 9999 L 0 9999 Z" fill="#496b42" opacity="1.0"/><path d="M0 645.0 Q 100 668 200 645 Q 300 622 400 645 Q 500 668 600 645 Q 700 622 800 645 Q 900 668 1000 645 L 1000 9999 L 0 9999 Z" fill="#30502c" opacity="1.0"/><rect x="108" y="578" width="23" height="107" rx="10" fill="#3c2f22"/><ellipse cx="120" cy="538" rx="98" ry="113" fill="#7b986f"/><ellipse cx="62" cy="587" rx="62" ry="70" fill="#7b986f"/><ellipse cx="178" cy="578" rx="66" ry="74" fill="#7b986f"/><rect x="268" y="578" width="23" height="107" rx="10" fill="#3c2f22"/><ellipse cx="280" cy="538" rx="98" ry="113" fill="#7b986f"/><ellipse cx="222" cy="587" rx="62" ry="70" fill="#7b986f"/><ellipse cx="338" cy="578" rx="66" ry="74" fill="#7b986f"/><rect x="888" y="578" width="23" height="107" rx="10" fill="#3c2f22"/><ellipse cx="900" cy="538" rx="98" ry="113" fill="#7b986f"/><ellipse cx="842" cy="587" rx="62" ry="70" fill="#7b986f"/><ellipse cx="958" cy="578" rx="66" ry="74" fill="#7b986f"/><ellipse cx="628" cy="692" rx="53" ry="32" fill="#638259"/><ellipse cx="602" cy="694" rx="32" ry="24" fill="#638259"/><ellipse cx="655" cy="694" rx="32" ry="24" fill="#638259"/><ellipse cx="651" cy="687" rx="53" ry="32" fill="#638259"/><ellipse cx="624" cy="689" rx="32" ry="24" fill="#638259"/><ellipse cx="677" cy="689" rx="32" ry="24" fill="#638259"/><ellipse cx="599" cy="671" rx="53" ry="32" fill="#638259"/><ellipse cx="573" cy="673" rx="32" ry="24" fill="#638259"/><ellipse cx="625" cy="673" rx="32" ry="24" fill="#638259"/><ellipse cx="512" cy="688" rx="53" ry="32" fill="#638259"/><ellipse cx="486" cy="690" rx="32" ry="24" fill="#638259"/><ellipse cx="538" cy="690" rx="32" ry="24" fill="#638259"/><ellipse cx="792" cy="678" rx="53" ry="32" fill="#638259"/><ellipse cx="766" cy="680" rx="32" ry="24" fill="#638259"/><ellipse cx="819" cy="680" rx="32" ry="24" fill="#638259"/><ellipse cx="689" cy="667" rx="53" ry="32" fill="#638259"/><ellipse cx="662" cy="669" rx="32" ry="24" fill="#638259"/><ellipse cx="715" cy="669" rx="32" ry="24" fill="#638259"/><ellipse cx="813" cy="667" rx="53" ry="32" fill="#638259"/><ellipse cx="786" cy="669" rx="32" ry="24" fill="#638259"/><ellipse cx="839" cy="669" rx="32" ry="24" fill="#638259"/><circle cx="828" cy="524" r="4" fill="#e9c7d6" opacity="0.55"/><circle cx="408" cy="703" r="5" fill="#e9c7d6" opacity="0.55"/><circle cx="708" cy="524" r="4" fill="#e9c7d6" opacity="0.55"/><circle cx="522" cy="588" r="5" fill="#e9c7d6" opacity="0.55"/><circle cx="102" cy="645" r="5" fill="#e9c7d6" opacity="0.55"/><circle cx="321" cy="582" r="3" fill="#e9c7d6" opacity="0.55"/><circle cx="606" cy="581" r="4" fill="#e9c7d6" opacity="0.55"/><circle cx="976" cy="737" r="4" fill="#e9c7d6" opacity="0.55"/><circle cx="714" cy="685" r="3" fill="#e9c7d6" opacity="0.55"/><circle cx="743" cy="557" r="3" fill="#e9c7d6" opacity="0.55"/><circle cx="271" cy="674" r="3" fill="#e9c7d6" opacity="0.55"/><circle cx="927" cy="633" r="5" fill="#e9c7d6" opacity="0.55"/><circle cx="243" cy="695" r="3" fill="#e9c7d6" opacity="0.55"/><circle cx="707" cy="560" r="4" fill="#e9c7d6" opacity="0.55"/><g font-family="Georgia, 'Times New Roman', serif"><text x="56" y="680" font-size="44" fill="#F7F4EE" font-weight="600" letter-spacing="0.5">Massif & plantations</text></g></svg>