<svg xmlns="http://www.w3.org/2000/svg" viewBox="0 0 1000 750" preserveAspectRatio="xMidYMid slice" role="img" aria-label="Réalisation paysagère"><defs><linearGradient id="sky" x1="0" y1="0" x2="0" y2="1"><stop offset="0" stop-color="#d3e2cd"/><stop offset="1" stop-color="#9fbf97"/></linearGradient><radialGradient id="orb"><stop offset="0" stop-color="#efe6c6" stop-opacity="0.5"/><stop offset="1" stop-color="#efe6c6" stop-opacity="0"/></radialGradient></defs><rect width="1000" height="750" fill="url(#sky)"/><circle cx="780" cy="195" r="338" fill="url(#orb)"/><circle cx="780" cy="195" r="82" fill="#efe6c6" opacity="0.5"/><g opacity="0.06" fill="#F7F4EE"><path d="M820.0 -164.99999999999997 C 1082.5 60.00000000000003, 1082.5 360.0, 820.0 585.0 C 557.5 360.0, 557.5 60.00000000000003, 820.0 -164.99999999999997 Z"/><rect x="818.0" y="-164.99999999999997" width="4" height="750.0" rx="2"/></g><path d="M0 465.0 Q 100 488 200 465 Q 300 442 400 465 Q 500 488 600 465 Q 700 442 800 465 Q 900 488 1000 465 L 1000 9999 L 0 9999 Z" fill="#6a8a5f" opacity="1.0"/><path d="M0 555.0 Q 100 578 200 555 Q 300 532 400 555 Q 500 578 600 555 Q 700 532 800 555 Q 900 578 1000 555 L 1000 9999 L 0 9999 Z" fill="#496b42" opacity="1.0"/><path d="M0 645.0 Q 100 668 200 645 Q 300 622 400 645 Q 500 668 600 645 Q 700 622 800 645 Q 900 668 1000 645 L 1000 9999 L 0 9999 Z" fill="#30502c" opacity="1.0"/><rect x="108" y="578" width="23" height="107" rx="10" fill="#3c2f22"/><ellipse cx="120" cy="538" rx="98" ry="113" fill="#7b986f"/><ellipse cx="62" cy="587" rx="62" ry="70" fill="#7b986f"/><ellipse cx="178" cy="578" rx="66" ry="74" fill="#7b986f"/><rect x="268" y="578" width="23" height="107" rx="10" fill="#3c2f22"/><ellipse cx="280" cy="538" rx="98" ry="113" fill="#7b986f"/><ellipse cx="222" cy="587" rx="62" ry="70" fill="#7b986f"/><ellipse cx="338" cy="578" rx="66" ry="74" fill="#7b986f"/><rect x="888" y="578" width="23" height="107" rx="10" fill="#3c2f22"/><ellipse cx="900" cy="538" rx="98" ry="113" fill="#7b986f"/><ellipse cx="842" cy="587" rx="62" ry="70" fill="#7b986f"/><ellipse cx="958" cy="578" rx="66" ry="74" fill="#7b986f"/><ellipse cx="668" cy="682" rx="53" ry="32" fill="#638259"/><ellipse cx="641" cy="684" rx="32" ry="24" fill="#638259"/><ellipse cx="694" cy="684" rx="32" ry="24" fill="#638259"/><ellipse cx="705" cy="683" rx="53" ry="32" fill="#638259"/><ellipse cx="678" cy="685" rx="32" ry="24" fill="#638259"/><ellipse cx="731" cy="685" rx="32" ry="24" fill="#638259"/><ellipse cx="503" cy="675" rx="53" ry="32" fill="#638259"/><ellipse cx="477" cy="677" rx="32" ry="24" fill="#638259"/><ellipse cx="529" cy="677" rx="32" ry="24" fill="#638259"/><ellipse cx="544" cy="683" rx="53" ry="32" fill="#638259"/><ellipse cx="518" cy="685" rx="32" ry="24" fill="#638259"/><ellipse cx="570" cy="685" rx="32" ry="24" fill="#638259"/><ellipse cx="653" cy="689" rx="53" ry="32" fill="#638259"/><ellipse cx="627" cy="691" rx="32" ry="24" fill="#638259"/><ellipse cx="680" cy="691" rx="32" ry="24" fill="#638259"/><ellipse cx="799" cy="670" rx="53" ry="32" fill="#638259"/><ellipse cx="772" cy="672" rx="32" ry="24" fill="#638259"/><ellipse cx="825" cy="672" rx="32" ry="24" fill="#638259"/><ellipse cx="814" cy="693" rx="53" ry="32" fill="#638259"/><ellipse cx="787" cy="695" rx="32" ry="24" fill="#638259"/><ellipse cx="840" cy="695" rx="32" ry="24" fill="#638259"/><circle cx="974" cy="563" r="5" fill="#e9c7d6" opacity="0.55"/><circle cx="862" cy="621" r="5" fill="#e9c7d6" opacity="0.55"/><circle cx="997" cy="556" r="5" fill="#e9c7d6" opacity="0.55"/><circle cx="900" cy="490" r="4" fill="#e9c7d6" opacity="0.55"/><circle cx="640" cy="729" r="4" fill="#e9c7d6" opacity="0.55"/><circle cx="39" cy="730" r="5" fill="#e9c7d6" opacity="0.55"/><circle cx="566" cy="725" r="5" fill="#e9c7d6" opacity="0.55"/><circle cx="787" cy="661" r="3" fill="#e9c7d6" opacity="0.55"/><circle cx="466" cy="510" r="3" fill="#e9c7d6" opacity="0.55"/><circle cx="488" cy="580" r="5" fill="#e9c7d6" opacity="0.55"/><circle cx="311" cy="599" r="4" fill="#e9c7d6" opacity="0.55"/><circle cx="352" cy="497" r="4" fill="#e9c7d6" opacity="0.55"/><circle cx="228" cy="534" r="5" fill="#e9c7d6" opacity="0.55"/><circle cx="556" cy="667" r="5" fill="#e9c7d6" opacity="0.55"/></svg>