<svg xmlns="http://www.w3.org/2000/svg" viewBox="0 0 1000 750" preserveAspectRatio="xMidYMid slice" role="img" aria-label="Terrasse bois"><defs><linearGradient id="sky" x1="0" y1="0" x2="0" y2="1"><stop offset="0" stop-color="#ece2d1"/><stop offset="1" stop-color="#cdbfa4"/></linearGradient><radialGradient id="orb"><stop offset="0" stop-color="#efe3c9" stop-opacity="0.5"/><stop offset="1" stop-color="#efe3c9" stop-opacity="0"/></radialGradient></defs><rect width="1000" height="750" fill="url(#sky)"/><circle cx="780" cy="195" r="338" fill="url(#orb)"/><circle cx="780" cy="195" r="82" fill="#efe3c9" opacity="0.5"/><g opacity="0.06" fill="#F7F4EE"><path d="M820.0 -164.99999999999997 C 1082.5 60.00000000000003, 1082.5 360.0, 820.0 585.0 C 557.5 360.0, 557.5 60.00000000000003, 820.0 -164.99999999999997 Z"/><rect x="818.0" y="-164.99999999999997" width="4" height="750.0" rx="2"/></g><path d="M0 465.0 Q 100 488 200 465 Q 300 442 400 465 Q 500 488 600 465 Q 700 442 800 465 Q 900 488 1000 465 L 1000 9999 L 0 9999 Z" fill="#9c8160" opacity="1.0"/><path d="M0 555.0 Q 100 578 200 555 Q 300 532 400 555 Q 500 578 600 555 Q 700 532 800 555 Q 900 578 1000 555 L 1000 9999 L 0 9999 Z" fill="#7d6547" opacity="1.0"/><path d="M0 645.0 Q 100 668 200 645 Q 300 622 400 645 Q 500 668 600 645 Q 700 622 800 645 Q 900 668 1000 645 L 1000 9999 L 0 9999 Z" fill="#5e4a33" opacity="1.0"/><rect x="0" y="555" width="1000" height="195" fill="#b9a585"/><line x1="0" y1="555" x2="-40" y2="750" stroke="#a8946f" stroke-width="3"/><line x1="125" y1="555" x2="85" y2="750" stroke="#a8946f" stroke-width="3"/><line x1="250" y1="555" x2="210" y2="750" stroke="#a8946f" stroke-width="3"/><line x1="375" y1="555" x2="335" y2="750" stroke="#a8946f" stroke-width="3"/><line x1="500" y1="555" x2="460" y2="750" stroke="#a8946f" stroke-width="3"/><line x1="625" y1="555" x2="585" y2="750" stroke="#a8946f" stroke-width="3"/><line x1="750" y1="555" x2="710" y2="750" stroke="#a8946f" stroke-width="3"/><line x1="875" y1="555" x2="835" y2="750" stroke="#a8946f" stroke-width="3"/><line x1="1000" y1="555" x2="960" y2="750" stroke="#a8946f" stroke-width="3"/><line x1="0" y1="620" x2="1000" y2="620" stroke="#a8946f" stroke-width="3"/><line x1="0" y1="685" x2="1000" y2="685" stroke="#a8946f" stroke-width="3"/><rect x="870" y="472" width="20" height="91" rx="8" fill="#3c2f22"/><ellipse cx="880" cy="440" rx="82" ry="96" fill="#4f6e49"/><ellipse cx="830" cy="481" rx="53" ry="59" fill="#4f6e49"/><ellipse cx="930" cy="472" rx="56" ry="63" fill="#4f6e49"/><ellipse cx="100" cy="555" rx="60" ry="36" fill="#5f7f5a"/><ellipse cx="70" cy="557" rx="36" ry="27" fill="#5f7f5a"/><ellipse cx="130" cy="557" rx="36" ry="27" fill="#5f7f5a"/><g font-family="Georgia, 'Times New Roman', serif"><text x="56" y="680" font-size="44" fill="#F7F4EE" font-weight="600" letter-spacing="0.5">Terrasse bois</text></g></svg>