<svg xmlns="http://www.w3.org/2000/svg" viewBox="0 0 1000 750" preserveAspectRatio="xMidYMid slice" role="img" aria-label="Réalisation paysagère"><defs><linearGradient id="sky" x1="0" y1="0" x2="0" y2="1"><stop offset="0" stop-color="#cfe3d0"/><stop offset="1" stop-color="#a7c7a2"/></linearGradient><radialGradient id="orb"><stop offset="0" stop-color="#f1e7c9" stop-opacity="0.55"/><stop offset="1" stop-color="#f1e7c9" stop-opacity="0"/></radialGradient></defs><rect width="1000" height="750" fill="url(#sky)"/><circle cx="780" cy="195" r="338" fill="url(#orb)"/><circle cx="780" cy="195" r="82" fill="#f1e7c9" opacity="0.55"/><g opacity="0.06" fill="#F7F4EE"><path d="M820.0 -164.99999999999997 C 1082.5 60.00000000000003, 1082.5 360.0, 820.0 585.0 C 557.5 360.0, 557.5 60.00000000000003, 820.0 -164.99999999999997 Z"/><rect x="818.0" y="-164.99999999999997" width="4" height="750.0" rx="2"/></g><path d="M0 465.0 Q 100 488 200 465 Q 300 442 400 465 Q 500 488 600 465 Q 700 442 800 465 Q 900 488 1000 465 L 1000 9999 L 0 9999 Z" fill="#5f7f5a" opacity="1.0"/><path d="M0 555.0 Q 100 578 200 555 Q 300 532 400 555 Q 500 578 600 555 Q 700 532 800 555 Q 900 578 1000 555 L 1000 9999 L 0 9999 Z" fill="#41603e" opacity="1.0"/><path d="M0 645.0 Q 100 668 200 645 Q 300 622 400 645 Q 500 668 600 645 Q 700 622 800 645 Q 900 668 1000 645 L 1000 9999 L 0 9999 Z" fill="#2c462a" opacity="1.0"/><rect x="108" y="578" width="23" height="107" rx="10" fill="#3c2f22"/><ellipse cx="120" cy="538" rx="98" ry="113" fill="#728f6b"/><ellipse cx="62" cy="587" rx="62" ry="70" fill="#728f6b"/><ellipse cx="178" cy="578" rx="66" ry="74" fill="#728f6b"/><rect x="268" y="578" width="23" height="107" rx="10" fill="#3c2f22"/><ellipse cx="280" cy="538" rx="98" ry="113" fill="#728f6b"/><ellipse cx="222" cy="587" rx="62" ry="70" fill="#728f6b"/><ellipse cx="338" cy="578" rx="66" ry="74" fill="#728f6b"/><rect x="888" y="578" width="23" height="107" rx="10" fill="#3c2f22"/><ellipse cx="900" cy="538" rx="98" ry="113" fill="#728f6b"/><ellipse cx="842" cy="587" rx="62" ry="70" fill="#728f6b"/><ellipse cx="958" cy="578" rx="66" ry="74" fill="#728f6b"/><ellipse cx="544" cy="684" rx="53" ry="32" fill="#5d7956"/><ellipse cx="517" cy="686" rx="32" ry="24" fill="#5d7956"/><ellipse cx="570" cy="686" rx="32" ry="24" fill="#5d7956"/><ellipse cx="821" cy="667" rx="53" ry="32" fill="#5d7956"/><ellipse cx="795" cy="669" rx="32" ry="24" fill="#5d7956"/><ellipse cx="848" cy="669" rx="32" ry="24" fill="#5d7956"/><ellipse cx="843" cy="668" rx="53" ry="32" fill="#5d7956"/><ellipse cx="817" cy="670" rx="32" ry="24" fill="#5d7956"/><ellipse cx="869" cy="670" rx="32" ry="24" fill="#5d7956"/><ellipse cx="553" cy="680" rx="53" ry="32" fill="#5d7956"/><ellipse cx="527" cy="682" rx="32" ry="24" fill="#5d7956"/><ellipse cx="579" cy="682" rx="32" ry="24" fill="#5d7956"/><ellipse cx="437" cy="671" rx="53" ry="32" fill="#5d7956"/><ellipse cx="410" cy="673" rx="32" ry="24" fill="#5d7956"/><ellipse cx="463" cy="673" rx="32" ry="24" fill="#5d7956"/><ellipse cx="718" cy="682" rx="53" ry="32" fill="#5d7956"/><ellipse cx="692" cy="684" rx="32" ry="24" fill="#5d7956"/><ellipse cx="744" cy="684" rx="32" ry="24" fill="#5d7956"/><ellipse cx="454" cy="675" rx="53" ry="32" fill="#5d7956"/><ellipse cx="428" cy="677" rx="32" ry="24" fill="#5d7956"/><ellipse cx="480" cy="677" rx="32" ry="24" fill="#5d7956"/><circle cx="285" cy="568" r="5" fill="#e9c7d6" opacity="0.55"/><circle cx="962" cy="544" r="5" fill="#e9c7d6" opacity="0.55"/><circle cx="434" cy="523" r="3" fill="#e9c7d6" opacity="0.55"/><circle cx="727" cy="666" r="5" fill="#e9c7d6" opacity="0.55"/><circle cx="799" cy="588" r="3" fill="#e9c7d6" opacity="0.55"/><circle cx="983" cy="687" r="4" fill="#e9c7d6" opacity="0.55"/><circle cx="711" cy="545" r="5" fill="#e9c7d6" opacity="0.55"/><circle cx="488" cy="550" r="3" fill="#e9c7d6" opacity="0.55"/><circle cx="695" cy="544" r="4" fill="#e9c7d6" opacity="0.55"/><circle cx="337" cy="534" r="3" fill="#e9c7d6" opacity="0.55"/><circle cx="607" cy="733" r="4" fill="#e9c7d6" opacity="0.55"/><circle cx="86" cy="694" r="5" fill="#e9c7d6" opacity="0.55"/><circle cx="571" cy="491" r="4" fill="#e9c7d6" opacity="0.55"/><circle cx="854" cy="592" r="4" fill="#e9c7d6" opacity="0.55"/></svg>