<svg xmlns="http://www.w3.org/2000/svg" viewBox="0 0 1000 750" preserveAspectRatio="xMidYMid slice" role="img" aria-label="Bassin & point d’eau"><defs><linearGradient id="sky" x1="0" y1="0" x2="0" y2="1"><stop offset="0" stop-color="#cfe1e2"/><stop offset="1" stop-color="#9fc3c0"/></linearGradient><radialGradient id="orb"><stop offset="0" stop-color="#eee6cb" stop-opacity="0.5"/><stop offset="1" stop-color="#eee6cb" stop-opacity="0"/></radialGradient></defs><rect width="1000" height="750" fill="url(#sky)"/><circle cx="780" cy="195" r="338" fill="url(#orb)"/><circle cx="780" cy="195" r="82" fill="#eee6cb" opacity="0.5"/><g opacity="0.06" fill="#F7F4EE"><path d="M820.0 -164.99999999999997 C 1082.5 60.00000000000003, 1082.5 360.0, 820.0 585.0 C 557.5 360.0, 557.5 60.00000000000003, 820.0 -164.99999999999997 Z"/><rect x="818.0" y="-164.99999999999997" width="4" height="750.0" rx="2"/></g><path d="M0 465.0 Q 100 488 200 465 Q 300 442 400 465 Q 500 488 600 465 Q 700 442 800 465 Q 900 488 1000 465 L 1000 9999 L 0 9999 Z" fill="#557a6b" opacity="1.0"/><path d="M0 555.0 Q 100 578 200 555 Q 300 532 400 555 Q 500 578 600 555 Q 700 532 800 555 Q 900 578 1000 555 L 1000 9999 L 0 9999 Z" fill="#3c5d52" opacity="1.0"/><path d="M0 645.0 Q 100 668 200 645 Q 300 622 400 645 Q 500 668 600 645 Q 700 622 800 645 Q 900 668 1000 645 L 1000 9999 L 0 9999 Z" fill="#284038" opacity="1.0"/><rect x="108" y="578" width="23" height="107" rx="10" fill="#3c2f22"/><ellipse cx="120" cy="538" rx="98" ry="113" fill="#698b7a"/><ellipse cx="62" cy="587" rx="62" ry="70" fill="#698b7a"/><ellipse cx="178" cy="578" rx="66" ry="74" fill="#698b7a"/><rect x="268" y="578" width="23" height="107" rx="10" fill="#3c2f22"/><ellipse cx="280" cy="538" rx="98" ry="113" fill="#698b7a"/><ellipse cx="222" cy="587" rx="62" ry="70" fill="#698b7a"/><ellipse cx="338" cy="578" rx="66" ry="74" fill="#698b7a"/><rect x="888" y="578" width="23" height="107" rx="10" fill="#3c2f22"/><ellipse cx="900" cy="538" rx="98" ry="113" fill="#698b7a"/><ellipse cx="842" cy="587" rx="62" ry="70" fill="#698b7a"/><ellipse cx="958" cy="578" rx="66" ry="74" fill="#698b7a"/><ellipse cx="704" cy="671" rx="53" ry="32" fill="#597766"/><ellipse cx="678" cy="673" rx="32" ry="24" fill="#597766"/><ellipse cx="730" cy="673" rx="32" ry="24" fill="#597766"/><ellipse cx="709" cy="667" rx="53" ry="32" fill="#597766"/><ellipse cx="682" cy="669" rx="32" ry="24" fill="#597766"/><ellipse cx="735" cy="669" rx="32" ry="24" fill="#597766"/><ellipse cx="805" cy="689" rx="53" ry="32" fill="#597766"/><ellipse cx="779" cy="691" rx="32" ry="24" fill="#597766"/><ellipse cx="832" cy="691" rx="32" ry="24" fill="#597766"/><ellipse cx="815" cy="670" rx="53" ry="32" fill="#597766"/><ellipse cx="789" cy="672" rx="32" ry="24" fill="#597766"/><ellipse cx="841" cy="672" rx="32" ry="24" fill="#597766"/><ellipse cx="476" cy="669" rx="53" ry="32" fill="#597766"/><ellipse cx="450" cy="671" rx="32" ry="24" fill="#597766"/><ellipse cx="502" cy="671" rx="32" ry="24" fill="#597766"/><ellipse cx="450" cy="676" rx="53" ry="32" fill="#597766"/><ellipse cx="423" cy="678" rx="32" ry="24" fill="#597766"/><ellipse cx="476" cy="678" rx="32" ry="24" fill="#597766"/><ellipse cx="412" cy="681" rx="53" ry="32" fill="#597766"/><ellipse cx="385" cy="683" rx="32" ry="24" fill="#597766"/><ellipse cx="438" cy="683" rx="32" ry="24" fill="#597766"/><circle cx="757" cy="558" r="5" fill="#e9c7d6" opacity="0.55"/><circle cx="909" cy="679" r="3" fill="#e9c7d6" opacity="0.55"/><circle cx="324" cy="590" r="3" fill="#e9c7d6" opacity="0.55"/><circle cx="298" cy="672" r="4" fill="#e9c7d6" opacity="0.55"/><circle cx="106" cy="559" r="3" fill="#e9c7d6" opacity="0.55"/><circle cx="715" cy="541" r="5" fill="#e9c7d6" opacity="0.55"/><circle cx="107" cy="654" r="3" fill="#e9c7d6" opacity="0.55"/><circle cx="248" cy="562" r="5" fill="#e9c7d6" opacity="0.55"/><circle cx="306" cy="610" r="5" fill="#e9c7d6" opacity="0.55"/><circle cx="339" cy="708" r="3" fill="#e9c7d6" opacity="0.55"/><circle cx="324" cy="625" r="4" fill="#e9c7d6" opacity="0.55"/><circle cx="212" cy="707" r="5" fill="#e9c7d6" opacity="0.55"/><circle cx="253" cy="572" r="5" fill="#e9c7d6" opacity="0.55"/><circle cx="108" cy="544" r="3" fill="#e9c7d6" opacity="0.55"/><g font-family="Georgia, 'Times New Roman', serif"><text x="56" y="680" font-size="44" fill="#F7F4EE" font-weight="600" letter-spacing="0.5">Bassin & point d’eau</text></g></svg>