<svg xmlns="http://www.w3.org/2000/svg" viewBox="0 0 1000 750" preserveAspectRatio="xMidYMid slice" role="img" aria-label="Réalisation paysagère"><defs><linearGradient id="sky" x1="0" y1="0" x2="0" y2="1"><stop offset="0" stop-color="#2b3c4e"/><stop offset="1" stop-color="#15212d"/></linearGradient><radialGradient id="orb"><stop offset="0" stop-color="#d9b877" stop-opacity="0.85"/><stop offset="1" stop-color="#d9b877" stop-opacity="0"/></radialGradient></defs><rect width="1000" height="750" fill="url(#sky)"/><circle cx="911" cy="111" r="1" fill="#fff" opacity="0.55"/><circle cx="451" cy="303" r="2" fill="#fff" opacity="0.67"/><circle cx="605" cy="279" r="2" fill="#fff" opacity="0.56"/><circle cx="61" cy="369" r="1" fill="#fff" opacity="0.73"/><circle cx="877" cy="257" r="1" fill="#fff" opacity="0.41"/><circle cx="656" cy="78" r="1" fill="#fff" opacity="0.61"/><circle cx="85" cy="83" r="2" fill="#fff" opacity="0.31"/><circle cx="592" cy="275" r="1" fill="#fff" opacity="0.52"/><circle cx="241" cy="102" r="1" fill="#fff" opacity="0.37"/><circle cx="950" cy="162" r="1" fill="#fff" opacity="0.40"/><circle cx="448" cy="305" r="1" fill="#fff" opacity="0.63"/><circle cx="867" cy="365" r="1" fill="#fff" opacity="0.66"/><circle cx="371" cy="51" r="1" fill="#fff" opacity="0.61"/><circle cx="224" cy="216" r="2" fill="#fff" opacity="0.49"/><circle cx="339" cy="5" r="1" fill="#fff" opacity="0.71"/><circle cx="307" cy="257" r="1" fill="#fff" opacity="0.76"/><circle cx="990" cy="108" r="1" fill="#fff" opacity="0.34"/><circle cx="947" cy="214" r="2" fill="#fff" opacity="0.32"/><circle cx="647" cy="64" r="2" fill="#fff" opacity="0.64"/><circle cx="202" cy="258" r="1" fill="#fff" opacity="0.44"/><circle cx="575" cy="142" r="1" fill="#fff" opacity="0.73"/><circle cx="69" cy="366" r="1" fill="#fff" opacity="0.68"/><circle cx="239" cy="200" r="1" fill="#fff" opacity="0.72"/><circle cx="241" cy="47" r="1" fill="#fff" opacity="0.67"/><circle cx="667" cy="168" r="2" fill="#fff" opacity="0.62"/><circle cx="879" cy="164" r="1" fill="#fff" opacity="0.60"/><circle cx="311" cy="97" r="1" fill="#fff" opacity="0.56"/><circle cx="120" cy="293" r="1" fill="#fff" opacity="0.51"/><circle cx="44" cy="370" r="1" fill="#fff" opacity="0.55"/><circle cx="404" cy="186" r="2" fill="#fff" opacity="0.54"/><circle cx="998" cy="178" r="1" fill="#fff" opacity="0.34"/><circle cx="20" cy="13" r="1" fill="#fff" opacity="0.41"/><circle cx="694" cy="52" r="2" fill="#fff" opacity="0.35"/><circle cx="156" cy="22" r="1" fill="#fff" opacity="0.73"/><circle cx="955" cy="219" r="1" fill="#fff" opacity="0.73"/><circle cx="845" cy="54" r="1" fill="#fff" opacity="0.52"/><circle cx="729" cy="353" r="1" fill="#fff" opacity="0.55"/><circle cx="36" cy="373" r="2" fill="#fff" opacity="0.34"/><circle cx="684" cy="126" r="1" fill="#fff" opacity="0.46"/><circle cx="412" cy="354" r="1" fill="#fff" opacity="0.58"/><circle cx="780" cy="195" r="338" fill="url(#orb)"/><circle cx="780" cy="195" r="82" fill="#d9b877" opacity="0.85"/><g opacity="0.06" fill="#F7F4EE"><path d="M820.0 -164.99999999999997 C 1082.5 60.00000000000003, 1082.5 360.0, 820.0 585.0 C 557.5 360.0, 557.5 60.00000000000003, 820.0 -164.99999999999997 Z"/><rect x="818.0" y="-164.99999999999997" width="4" height="750.0" rx="2"/></g><path d="M0 465.0 Q 100 488 200 465 Q 300 442 400 465 Q 500 488 600 465 Q 700 442 800 465 Q 900 488 1000 465 L 1000 9999 L 0 9999 Z" fill="#1d2b22" opacity="1.0"/><path d="M0 555.0 Q 100 578 200 555 Q 300 532 400 555 Q 500 578 600 555 Q 700 532 800 555 Q 900 578 1000 555 L 1000 9999 L 0 9999 Z" fill="#162018" opacity="1.0"/><path d="M0 645.0 Q 100 668 200 645 Q 300 622 400 645 Q 500 668 600 645 Q 700 622 800 645 Q 900 668 1000 645 L 1000 9999 L 0 9999 Z" fill="#0f1812" opacity="1.0"/><rect x="197" y="445" width="6" height="305" fill="#0c1410"/><circle cx="200" cy="439" r="10" fill="#d9b877"/><ellipse cx="200" cy="690" rx="120" ry="38" fill="#d9b877" opacity="0.18"/><rect x="547" y="445" width="6" height="305" fill="#0c1410"/><circle cx="550" cy="439" r="10" fill="#d9b877"/><ellipse cx="550" cy="690" rx="120" ry="38" fill="#d9b877" opacity="0.18"/><rect x="847" y="445" width="6" height="305" fill="#0c1410"/><circle cx="850" cy="439" r="10" fill="#d9b877"/><ellipse cx="850" cy="690" rx="120" ry="38" fill="#d9b877" opacity="0.18"/><rect x="889" y="585" width="22" height="99" rx="9" fill="#3c2f22"/><ellipse cx="900" cy="549" rx="90" ry="104" fill="#16231a"/><ellipse cx="846" cy="594" rx="58" ry="65" fill="#16231a"/><ellipse cx="954" cy="585" rx="61" ry="68" fill="#16231a"/></svg>