<svg xmlns="http://www.w3.org/2000/svg" viewBox="0 0 1000 750" preserveAspectRatio="xMidYMid slice" role="img" aria-label="Réalisation paysagère"><defs><linearGradient id="sky" x1="0" y1="0" x2="0" y2="1"><stop offset="0" stop-color="#d3e2cd"/><stop offset="1" stop-color="#9fbf97"/></linearGradient><radialGradient id="orb"><stop offset="0" stop-color="#efe6c6" stop-opacity="0.5"/><stop offset="1" stop-color="#efe6c6" stop-opacity="0"/></radialGradient></defs><rect width="1000" height="750" fill="url(#sky)"/><circle cx="780" cy="195" r="338" fill="url(#orb)"/><circle cx="780" cy="195" r="82" fill="#efe6c6" opacity="0.5"/><g opacity="0.06" fill="#F7F4EE"><path d="M820.0 -164.99999999999997 C 1082.5 60.00000000000003, 1082.5 360.0, 820.0 585.0 C 557.5 360.0, 557.5 60.00000000000003, 820.0 -164.99999999999997 Z"/><rect x="818.0" y="-164.99999999999997" width="4" height="750.0" rx="2"/></g><path d="M0 465.0 Q 100 488 200 465 Q 300 442 400 465 Q 500 488 600 465 Q 700 442 800 465 Q 900 488 1000 465 L 1000 9999 L 0 9999 Z" fill="#6a8a5f" opacity="1.0"/><path d="M0 555.0 Q 100 578 200 555 Q 300 532 400 555 Q 500 578 600 555 Q 700 532 800 555 Q 900 578 1000 555 L 1000 9999 L 0 9999 Z" fill="#496b42" opacity="1.0"/><path d="M0 645.0 Q 100 668 200 645 Q 300 622 400 645 Q 500 668 600 645 Q 700 622 800 645 Q 900 668 1000 645 L 1000 9999 L 0 9999 Z" fill="#30502c" opacity="1.0"/><rect x="108" y="578" width="23" height="107" rx="10" fill="#3c2f22"/><ellipse cx="120" cy="538" rx="98" ry="113" fill="#7b986f"/><ellipse cx="62" cy="587" rx="62" ry="70" fill="#7b986f"/><ellipse cx="178" cy="578" rx="66" ry="74" fill="#7b986f"/><rect x="268" y="578" width="23" height="107" rx="10" fill="#3c2f22"/><ellipse cx="280" cy="538" rx="98" ry="113" fill="#7b986f"/><ellipse cx="222" cy="587" rx="62" ry="70" fill="#7b986f"/><ellipse cx="338" cy="578" rx="66" ry="74" fill="#7b986f"/><rect x="888" y="578" width="23" height="107" rx="10" fill="#3c2f22"/><ellipse cx="900" cy="538" rx="98" ry="113" fill="#7b986f"/><ellipse cx="842" cy="587" rx="62" ry="70" fill="#7b986f"/><ellipse cx="958" cy="578" rx="66" ry="74" fill="#7b986f"/><ellipse cx="807" cy="689" rx="53" ry="32" fill="#638259"/><ellipse cx="780" cy="691" rx="32" ry="24" fill="#638259"/><ellipse cx="833" cy="691" rx="32" ry="24" fill="#638259"/><ellipse cx="722" cy="677" rx="53" ry="32" fill="#638259"/><ellipse cx="696" cy="679" rx="32" ry="24" fill="#638259"/><ellipse cx="749" cy="679" rx="32" ry="24" fill="#638259"/><ellipse cx="809" cy="667" rx="53" ry="32" fill="#638259"/><ellipse cx="783" cy="669" rx="32" ry="24" fill="#638259"/><ellipse cx="835" cy="669" rx="32" ry="24" fill="#638259"/><ellipse cx="725" cy="693" rx="53" ry="32" fill="#638259"/><ellipse cx="699" cy="695" rx="32" ry="24" fill="#638259"/><ellipse cx="752" cy="695" rx="32" ry="24" fill="#638259"/><ellipse cx="567" cy="684" rx="53" ry="32" fill="#638259"/><ellipse cx="541" cy="686" rx="32" ry="24" fill="#638259"/><ellipse cx="593" cy="686" rx="32" ry="24" fill="#638259"/><ellipse cx="469" cy="666" rx="53" ry="32" fill="#638259"/><ellipse cx="442" cy="668" rx="32" ry="24" fill="#638259"/><ellipse cx="495" cy="668" rx="32" ry="24" fill="#638259"/><ellipse cx="663" cy="689" rx="53" ry="32" fill="#638259"/><ellipse cx="636" cy="691" rx="32" ry="24" fill="#638259"/><ellipse cx="689" cy="691" rx="32" ry="24" fill="#638259"/><circle cx="227" cy="662" r="4" fill="#e9c7d6" opacity="0.55"/><circle cx="32" cy="592" r="5" fill="#e9c7d6" opacity="0.55"/><circle cx="517" cy="621" r="4" fill="#e9c7d6" opacity="0.55"/><circle cx="877" cy="745" r="4" fill="#e9c7d6" opacity="0.55"/><circle cx="478" cy="730" r="4" fill="#e9c7d6" opacity="0.55"/><circle cx="1" cy="520" r="4" fill="#e9c7d6" opacity="0.55"/><circle cx="17" cy="666" r="5" fill="#e9c7d6" opacity="0.55"/><circle cx="472" cy="718" r="5" fill="#e9c7d6" opacity="0.55"/><circle cx="821" cy="749" r="5" fill="#e9c7d6" opacity="0.55"/><circle cx="585" cy="719" r="3" fill="#e9c7d6" opacity="0.55"/><circle cx="871" cy="529" r="3" fill="#e9c7d6" opacity="0.55"/><circle cx="188" cy="564" r="4" fill="#e9c7d6" opacity="0.55"/><circle cx="868" cy="677" r="3" fill="#e9c7d6" opacity="0.55"/><circle cx="746" cy="511" r="3" fill="#e9c7d6" opacity="0.55"/></svg>